<?xml version="1.0" standalone="no"?>
<!DOCTYPE svg PUBLIC "-//W3C//DTD SVG 1.1//EN" "http://www.w3.org/Graphics/SVG/1.1/DTD/svg11.dtd" >
<svg>
<metadata>
Created by FontForge 20090914 at Thu Feb 23 16:59:50 2012
 By ffonts
&#194;&#169;1997 Martin P. Pfeiffer. Based on Apple Computer's "Chicago" and "Charcoal" fonts. For Macintosh use only!
</metadata>
<defs>
<font id="Virtue" horiz-adv-x="1365" >
  <font-face 
    font-family="Virtue"
    font-weight="400"
    font-stretch="normal"
    units-per-em="2048"
    panose-1="0 0 4 0 0 0 0 0 0 0"
    ascent="1638"
    descent="-410"
    x-height="1195"
    cap-height="1536"
    bbox="-171 -512 2565 2051"
    underline-thickness="171"
    underline-position="0"
    unicode-range="U+0020-U+F002"
  />
<missing-glyph horiz-adv-x="1024" 
d="M128 0v2048h768v-2048h-768zM256 128h512v1792h-512v-1792z" />
    <glyph glyph-name=".notdef" horiz-adv-x="1024" 
d="M128 0v2048h768v-2048h-768zM256 128h512v1792h-512v-1792z" />
    <glyph glyph-name=".null" horiz-adv-x="0" 
 />
    <glyph glyph-name="nonmarkingreturn" horiz-adv-x="683" 
 />
    <glyph glyph-name="space" unicode=" " horiz-adv-x="683" 
 />
    <glyph glyph-name="exclam" unicode="!" horiz-adv-x="855" 
d="M682 512h-341v1024h341v-1024zM682 0h-341v341h341v-341z" />
    <glyph glyph-name="quotedbl" unicode="&#x22;" horiz-adv-x="1197" 
d="M1026 1539l-85 -513h-171l-88 510zM512 1536l-85 -512h-171l-85 515z" />
    <glyph glyph-name="numbersign" unicode="#" horiz-adv-x="1707" 
d="M1539 855h-494l-38 -171h361v-342h-437l-76 -342h-171l76 342h-171l-76 -342h-171l76 342h-418v342h494l38 171h-361v342h437l76 342h171l-76 -342h171l76 342h171l-76 -342h418v-342zM874 855h-171l-38 -171h171z" />
    <glyph glyph-name="dollar" unicode="$" horiz-adv-x="1368" 
d="M1197 1368h-373l-42 -462l313 -238q100 -76 100 -241v-86q0 -141 -99.5 -241t-240.5 -100h-155l-16 -171h-171l16 171h-358v171h373l42 458l-315 239q-100 76 -100 241v86q0 141 100.5 242.5t241.5 101.5h155l16 171h171l-16 -171h358v-171zM653 1367q-141 -15 -141 -173
q0 -82 50 -120l60 -46zM854 343q0 82 -50 120l-58 44l-31 -335q139 14 139 171z" />
    <glyph glyph-name="percent" unicode="%" horiz-adv-x="2223" 
d="M2052 342q0 -142 -125 -242t-302 -100q-178 0 -303 100t-125 242t125 242t303 100q177 0 302 -100t125 -242zM1710 342q0 71 -25 121t-60 50q-36 0 -61 -50t-25 -121t25 -121t61 -50q35 0 60 50t25 121zM1539 1539l-684 -1539h-171l684 1539h171zM1026 1197
q0 -142 -125 -242t-302 -100q-178 0 -303 100t-125 242t125 242t303 100q177 0 302 -100t125 -242zM684 1197q0 71 -25 121t-60 50q-36 0 -61 -50t-25 -121t25 -121t61 -50q35 0 60 50t25 121z" />
    <glyph glyph-name="ampersand" unicode="&#x26;" horiz-adv-x="1707" 
d="M1539 0h-342l-61 75q-133 -75 -281 -75h-342q-142 0 -242 100t-100 242v171q0 228 305 387q-134 198 -134 297q0 142 100 242t242 100h171q142 0 242 -100t100 -242q0 -88 -113 -184q-63 -54 -245 -168l284 -343q74 162 74 353h342q0 -358 -204 -609zM855 1197v86
q0 35 -25 60t-60 25q-36 0 -61 -25t-25 -60v-171q0 -30 31 -91q140 82 140 176zM967 284l-338 416q-116 -98 -116 -187v-171q0 -71 50 -121t121 -50q154 0 283 113z" />
    <glyph glyph-name="quotesingle" unicode="'" horiz-adv-x="684" 
d="M513 1539l-86 -515h-171l-85 515h342z" />
    <glyph glyph-name="parenleft" unicode="(" horiz-adv-x="1026" 
d="M855 -342q-283 0 -483.5 200.5t-200.5 483.5v513q0 283 200.5 483.5t483.5 200.5v-171q-142 0 -242 -150.5t-100 -362.5v-513q0 -212 100 -362.5t242 -150.5v-171z" />
    <glyph glyph-name="parenright" unicode=")" horiz-adv-x="1026" 
d="M855 342q0 -283 -200.5 -483.5t-483.5 -200.5v171q142 0 242 150.5t100 362.5v513q0 212 -100 362.5t-242 150.5v171q283 0 483.5 -200.5t200.5 -483.5v-513z" />
    <glyph glyph-name="asterisk" unicode="*" horiz-adv-x="1368" 
d="M1112 850h-308l154 -267l-147 -84l-155 266l-154 -266l-147 85l154 266h-307v170h307l-153 267l147 84l154 -265l153 266l148 -86l-153 -266h307v-170z" />
    <glyph glyph-name="plus" unicode="+" horiz-adv-x="1368" 
d="M1195 512h-341v-341h-342v341h-341v343h341v341h342v-341h341v-343z" />
    <glyph glyph-name="comma" unicode="," horiz-adv-x="683" 
d="M512 0q0 -303 -341 -341v170q165 6 171 171h-171v341h341v-341z" />
    <glyph glyph-name="hyphen" unicode="-" horiz-adv-x="1197" 
d="M1026 513h-855v342h855v-342z" />
    <glyph glyph-name="hyphen" unicode="&#x2010;" horiz-adv-x="1197" 
d="M1026 513h-855v342h855v-342z" />
    <glyph glyph-name="period" unicode="." horiz-adv-x="683" 
d="M512 0h-341v341h341v-341z" />
    <glyph glyph-name="slash" unicode="/" horiz-adv-x="1197" 
d="M1026 1539l-513 -1539h-342l513 1539h342z" />
    <glyph glyph-name="zero" unicode="0" 
d="M1195 341q0 -140 -100.5 -240.5t-240.5 -100.5h-342q-141 0 -241 100t-100 241v854q0 141 100 241t241 100h342q140 0 240.5 -100.5t100.5 -240.5v-854zM851 1224q-35 141 -168 141q-71 0 -121 -50t-50 -120v-581zM854 341v580l-338 -607q26 -143 167 -143q71 0 121 50
t50 120z" />
    <glyph glyph-name="one" unicode="1" 
d="M853 0h-341v1195h-171v170l341 171h171v-1536z" />
    <glyph glyph-name="two" unicode="2" 
d="M1195 0h-1024v171q0 133 177 304l329 284q177 160 177 265v171q0 70 -50.5 120t-120.5 50q-158 0 -170 -170h-342q40 341 341 341h342q140 0 240.5 -100.5t100.5 -240.5v-171q0 -105 -177 -263l-329 -283q-177 -172 -177 -307h683v-171z" />
    <glyph glyph-name="three" unicode="3" 
d="M1197 342q0 -140 -101 -241t-241 -101h-342q-302 0 -342 342h342q12 -171 171 -171q70 0 120.5 50.5t50.5 120.5v171q0 71 -50 121t-121 50h-171v171h171q71 0 121 50t50 121v171q0 70 -50.5 120.5t-120.5 50.5q-159 0 -171 -173h-342q40 338 341 341l343 3
q140 1 241 -100t101 -242v-171q0 -154 -116 -256q116 -103 116 -257v-171z" />
    <glyph glyph-name="four" unicode="4" 
d="M1195 512h-171v-512h-341v512h-683v171l683 853h341v-853h171v-171zM683 683v640l-512 -640h512z" />
    <glyph glyph-name="five" unicode="5" 
d="M1197 342q0 -140 -101 -241t-241 -101h-342q-303 0 -342 342h342q12 -171 171 -171q70 0 120.5 50t50.5 121v342q0 71 -50.5 121t-120.5 50h-513v684h1026v-171h-684v-342h342q141 0 241.5 -100.5t100.5 -241.5v-342z" />
    <glyph glyph-name="six" unicode="6" 
d="M1197 342q0 -140 -101 -241t-241 -101h-342q-140 0 -241 101t-101 241v599q0 246 176 422t423 176h256v-171h-171q-141 0 -241.5 -100.5t-100.5 -241.5v-171q20 171 171 171h171q141 0 241.5 -100.5t100.5 -241.5v-342zM855 342v342q0 71 -50.5 121t-120.5 50t-120.5 -50
t-50.5 -121v-342q0 -71 50.5 -121t120.5 -50t120.5 50t50.5 121z" />
    <glyph glyph-name="seven" unicode="7" 
d="M1195 1195q-40 -79 -120 -177l-136 -165q-89 -116 -161 -246q-96 -173 -96 -266v-341h-341v341q0 169 257 512l255 342v170h-682v171h1024v-341z" />
    <glyph glyph-name="eight" unicode="8" 
d="M1197 342q0 -131 -106 -236.5t-236 -105.5h-342q-130 0 -236 105.5t-106 236.5v86q0 147 97.5 244.5t244.5 97.5q-342 40 -342 342v85q0 140 101 241t241 101h342q140 0 241 -101t101 -241v-85q0 -303 -342 -342q147 0 244.5 -97.5t97.5 -244.5v-86zM855 1026v171
q0 71 -50.5 121t-120.5 50t-120.5 -50t-50.5 -121v-171q0 -70 50.5 -120.5t120.5 -50.5t120.5 50.5t50.5 120.5zM855 342v171q0 171 -171 171t-171 -171v-171q0 -71 50.5 -121t120.5 -50t120.5 50t50.5 121z" />
    <glyph glyph-name="nine" unicode="9" 
d="M1197 599q0 -247 -176 -423t-422 -176h-257v171h171q141 0 241.5 100.5t100.5 241.5v171q-19 -171 -171 -171h-171q-140 0 -241 101t-101 241v342q0 140 101 241t241 101h342q140 0 241 -101t101 -241v-598zM855 855v342q0 71 -50.5 121t-120.5 50t-120.5 -50.5
t-50.5 -120.5v-342q0 -71 50.5 -121t120.5 -50t120.5 50.5t50.5 120.5z" />
    <glyph glyph-name="colon" unicode=":" horiz-adv-x="683" 
d="M512 853h-341v342h341v-342zM512 0h-341v341h341v-341z" />
    <glyph glyph-name="semicolon" unicode=";" horiz-adv-x="683" 
d="M512 853h-341v342h341v-342zM512 0q0 -303 -341 -341v170q165 6 171 171h-171v341h341v-341z" />
    <glyph glyph-name="less" unicode="&#x3c;" horiz-adv-x="1024" 
d="M855 0h-342l-342 513l342 513h342l-342 -513z" />
    <glyph glyph-name="equal" unicode="=" horiz-adv-x="1197" 
d="M1026 684h-855v342h855v-342zM1026 171h-855v342h855v-342z" />
    <glyph glyph-name="greater" unicode="&#x3e;" horiz-adv-x="1024" 
d="M855 513l-342 -513h-342l342 513l-342 513h342z" />
    <glyph glyph-name="question" unicode="?" horiz-adv-x="1197" 
d="M1026 1197q0 -143 -89 -253l-164 -178q-89 -110 -89 -253h-342q0 183 89 310q6 9 164 178q89 94 89 196q0 71 -50 121t-121 50h-342v171h513q142 0 242 -100t100 -242zM684 0h-342v342h342v-342z" />
    <glyph glyph-name="at" unicode="@" horiz-adv-x="2052" 
d="M1881 513q0 -142 -100 -242t-242 -100h-171q-154 0 -256 116q-103 -116 -257 -116q-142 0 -242 100t-100 242v171q0 142 100 242t242 100q107 0 159.5 -23t97.5 -89l85 112h171v-513q0 -71 50 -121t121 -50t121 50t50 121v342q0 212 -150.5 362.5t-362.5 150.5h-342
q-212 0 -362.5 -150.5t-150.5 -362.5v-513q0 -212 150.5 -362.5t362.5 -150.5h513v-171h-513q-283 0 -483.5 200.5t-200.5 483.5v513q0 283 200.5 483.5t483.5 200.5h342q283 0 483.5 -200.5t200.5 -483.5v-342zM1026 428v427h-85q-36 0 -61 -25t-25 -60v-342q0 -36 25 -61
t61 -25q35 0 60 25t25 61z" />
    <glyph glyph-name="A" unicode="A" horiz-adv-x="1368" 
d="M1368 0h-303l-118 342h-526l-118 -342h-303l530 1539h308zM888 513l-204 593l-204 -593h408z" />
    <glyph glyph-name="B" unicode="B" horiz-adv-x="1539" 
d="M1368 513q0 -213 -150.5 -363t-362.5 -150h-684v1539h684q142 0 242 -100t100 -242q0 -160 -123 -263q136 -70 215 -181t79 -240zM855 1197q0 71 -50 121t-121 50h-171v-342h171q71 0 121 50t50 121zM1026 513q0 142 -100 242t-242 100h-171v-684h171q142 0 242 100
t100 242z" />
    <glyph glyph-name="C" unicode="C" 
d="M1197 0h-513q-212 0 -362.5 150.5t-150.5 362.5v513q0 212 150.5 362.5t362.5 150.5h342q64 0 117.5 -53.5t53.5 -117.5v-171h-171q0 71 -50 121t-121 50q-141 0 -241.5 -100.5t-100.5 -241.5v-513q0 -142 100 -242t242 -100h342v-171z" />
    <glyph glyph-name="D" unicode="D" horiz-adv-x="1539" 
d="M1368 513q0 -212 -150.5 -362.5t-362.5 -150.5h-684v1539h684q212 0 362.5 -150.5t150.5 -362.5v-513zM1026 513v513q0 142 -100 242t-242 100h-171v-1197h171q142 0 242 100t100 242z" />
    <glyph glyph-name="E" unicode="E" horiz-adv-x="1368" 
d="M1195 0h-1024v1536h1024v-171h-683v-512h513v-170h-513v-512h683v-171z" />
    <glyph glyph-name="F" unicode="F" horiz-adv-x="1024" 
d="M1024 1365h-512v-512h342v-170h-342v-683h-341v1536h853v-171z" />
    <glyph glyph-name="G" unicode="G" horiz-adv-x="1539" 
d="M1368 342q0 -148 -97 -245t-245 -97h-342q-212 0 -362.5 150.5t-150.5 362.5v513q0 212 150.5 362.5t362.5 150.5h342q71 0 121 -50t50 -121v-171h-171q0 71 -50 121t-121 50q-141 0 -241.5 -100.5t-100.5 -241.5v-513q0 -142 100.5 -243t241.5 -99q171 2 171 171v342
h-171v171h513v-513z" />
    <glyph glyph-name="H" unicode="H" horiz-adv-x="1539" 
d="M1366 0h-341v683h-513v-683h-341v1536h341v-683h513v683h341v-1536z" />
    <glyph glyph-name="I" unicode="I" horiz-adv-x="684" 
d="M511 0h-341v1536h341v-1536z" />
    <glyph glyph-name="J" unicode="J" horiz-adv-x="855" 
d="M682 341q0 -341 -341 -341h-341v171h171q70 0 120 49.5t50 120.5v1195h341v-1195z" />
    <glyph glyph-name="K" unicode="K" horiz-adv-x="1539" 
d="M1366 0h-342l-512 597v-597h-341v1536h341v-627l552 627h302l-683 -768z" />
    <glyph glyph-name="L" unicode="L" horiz-adv-x="1024" 
d="M1024 0h-853v1536h341v-1365h512v-171z" />
    <glyph glyph-name="M" unicode="M" horiz-adv-x="2052" 
d="M1881 0h-342v941l-598 -941l-599 941v-941h-171v1539h257l554 -1071l643 1071h256v-1539z" />
    <glyph glyph-name="N" unicode="N" horiz-adv-x="1539" 
d="M1366 0h-78l-946 853v-853h-171v1536h78l946 -853v853h171v-1536z" />
    <glyph glyph-name="O" unicode="O" horiz-adv-x="1710" 
d="M1539 513q0 -212 -150.5 -362.5t-362.5 -150.5h-342q-212 0 -362.5 150.5t-150.5 362.5v513q0 212 150.5 362.5t362.5 150.5h342q212 0 362.5 -150.5t150.5 -362.5v-513zM1197 513v513q0 142 -100 242t-242 100t-242 -100t-100 -242v-513q0 -142 100 -242t242 -100
t242 100t100 242z" />
    <glyph glyph-name="P" unicode="P" 
d="M1195 1024q0 -141 -100 -241t-241 -100h-342v-683h-341v1536h683q140 0 240.5 -100.5t100.5 -240.5v-171zM854 1024v171q0 70 -50 120t-121 50h-171v-512h171q70 0 120.5 50.5t50.5 120.5z" />
    <glyph glyph-name="Q" unicode="Q" horiz-adv-x="1710" 
d="M1539 513q0 -212 -150.5 -362.5t-362.5 -150.5q0 -71 50 -121t121 -50v-171h-171q-142 0 -242 100t-100 242q-212 0 -362.5 150.5t-150.5 362.5v513q0 212 150.5 362.5t362.5 150.5h342q212 0 362.5 -150.5t150.5 -362.5v-513zM1197 513v513q0 142 -100 242t-242 100
t-242 -100t-100 -242v-513q0 -142 100 -242t242 -100t242 100t100 242z" />
    <glyph glyph-name="R" unicode="R" 
d="M1195 0h-341v512q0 70 -50.5 120.5t-120.5 50.5h-171v-683h-341v1536h683q140 0 240.5 -100.5t100.5 -240.5v-93q0 -150 -95 -238t-246 -88h170q70 0 120.5 -50.5t50.5 -120.5v-605zM854 1024v171q0 70 -50 120t-121 50h-171v-512h171q70 0 120.5 50.5t50.5 120.5z" />
    <glyph glyph-name="S" unicode="S" horiz-adv-x="1195" 
d="M1026 1368h-342q-172 0 -172 -174q0 -64 50 -120l362 -406q100 -112 100 -241v-86q0 -141 -99.5 -241t-240.5 -100h-513v171h342q170 0 170 172q0 64 -50 120l-362 405q-100 112 -100 241v86q0 141 100.5 242.5t241.5 101.5h513v-171z" />
    <glyph glyph-name="T" unicode="T" horiz-adv-x="1024" 
d="M1024 1365h-341v-1365h-342v1365h-341v171h1024v-171z" />
    <glyph glyph-name="U" unicode="U" horiz-adv-x="1539" 
d="M1368 513q0 -212 -150.5 -362.5t-362.5 -150.5h-171q-212 0 -362.5 150.5t-150.5 362.5v1026h342v-1026q0 -142 100 -242t242 -100t242 100t100 242v1026h171v-1026z" />
    <glyph glyph-name="V" unicode="V" horiz-adv-x="1368" 
d="M1368 1539l-530 -1539h-308l-530 1539h362l322 -1111l322 1111h362z" />
    <glyph glyph-name="W" unicode="W" horiz-adv-x="2052" 
d="M2052 1539l-513 -1539h-329l-215 933l-311 -933h-329l-355 1539h342l276 -1111l399 1111h180l276 -1111l399 1111h180z" />
    <glyph glyph-name="X" unicode="X" horiz-adv-x="1368" 
d="M1366 1539l-509 -727l508 -812h-403l-318 508l-356 -508h-313l522 744l-497 795h403l307 -490l343 490h313z" />
    <glyph glyph-name="Y" unicode="Y" horiz-adv-x="1368" 
d="M1365 1539l-510 -1094v-445h-342v487l-513 1052h381l360 -739l344 739h280z" />
    <glyph glyph-name="Z" unicode="Z" 
d="M1195 0h-1024v171l683 1194h-683v171h1024v-171l-683 -1194h683v-171z" />
    <glyph glyph-name="bracketleft" unicode="[" horiz-adv-x="855" 
d="M683 -342h-512v1878h512v-171h-171v-1536h171v-171z" />
    <glyph glyph-name="backslash" unicode="\" horiz-adv-x="1026" 
d="M855 0l-344 3l-511 1536l344 -3z" />
    <glyph glyph-name="bracketright" unicode="]" horiz-adv-x="855" 
d="M683 -342h-512v171h171v1539h-171v171h512v-1881z" />
    <glyph glyph-name="asciicircum" unicode="^" horiz-adv-x="1368" 
d="M1197 684h-341l-172 342l-171 -342h-342l342 855h342z" />
    <glyph glyph-name="underscore" unicode="_" horiz-adv-x="1026" 
d="M1026 -171h-1026v171h1026v-171z" />
    <glyph glyph-name="grave" unicode="`" horiz-adv-x="1026" 
d="M855 1368h-171l-342 342h342z" />
    <glyph glyph-name="a" unicode="a" 
d="M1197 0h-342v257q-37 -144 -112.5 -200.5t-229.5 -56.5q-141 0 -241.5 100.5t-100.5 241.5v171q0 142 100 242t242 100h342q0 70 -50.5 120.5t-120.5 50.5h-342v171h513q141 0 241.5 -100.5t100.5 -241.5v-855zM855 428v256h-171q-71 0 -121 -50t-50 -121v-171
q0 -171 86 -171q116 0 192 93q64 78 64 164z" />
    <glyph glyph-name="b" unicode="b" 
d="M1197 342q0 -141 -100.5 -241.5t-241.5 -100.5h-684v1539h342v-598q37 143 112.5 199.5t229.5 56.5q141 0 241.5 -100.5t100.5 -241.5v-513zM855 342v513q0 171 -85 171q-117 0 -193 -93q-64 -78 -64 -163v-599h171q70 0 120.5 50.5t50.5 120.5z" />
    <glyph glyph-name="c" unicode="c" horiz-adv-x="1195" 
d="M1026 0h-513q-141 0 -241.5 100.5t-100.5 241.5v513q0 141 100.5 241.5t241.5 100.5h342q71 0 121 -50t50 -121v-171h-171q-20 171 -171 171q-70 0 -120.5 -50.5t-50.5 -120.5v-513q0 -71 50.5 -121t120.5 -50h342v-171z" />
    <glyph glyph-name="d" unicode="d" 
d="M1197 0h-171l-85 112q-45 -66 -97.5 -89t-159.5 -23h-171q-141 0 -241.5 100.5t-100.5 241.5v513q0 141 100.5 241.5t241.5 100.5h342v342h342v-1539zM855 342v684h-171q-70 0 -120.5 -50.5t-50.5 -120.5v-513q0 -67 59 -121q55 -50 112 -50q71 0 121 50t50 121z" />
    <glyph glyph-name="e" unicode="e" 
d="M1197 0h-684q-141 0 -241.5 100.5t-100.5 241.5v513q0 141 100.5 241.5t241.5 100.5h342q141 0 241.5 -100.5t100.5 -241.5v-342h-684v-171q0 -71 50.5 -121t120.5 -50h513v-171zM855 684v171q0 70 -50.5 120.5t-120.5 50.5t-120.5 -50.5t-50.5 -120.5v-171h342z" />
    <glyph glyph-name="f" unicode="f" horiz-adv-x="855" 
d="M853 1365h-186q-64 0 -109.5 -45.5t-45.5 -109.5v-15h171v-171h-171v-1024h-341v1024h-171v171h171v15q0 135 95.5 230.5t230.5 95.5h356v-171z" />
    <glyph glyph-name="g" unicode="g" 
d="M1197 0q0 -140 -101 -241t-241 -101h-513v171h342q71 0 121 50t50 121v257q-37 -144 -112.5 -200.5t-229.5 -56.5q-141 0 -241.5 100.5t-100.5 241.5v513q0 141 100.5 241.5t241.5 100.5h171q107 0 159.5 -23t97.5 -89l85 112h171v-1197zM855 428v598h-171
q-70 0 -120.5 -50.5t-50.5 -120.5v-513q0 -171 86 -171q116 0 192 93q64 78 64 164z" />
    <glyph glyph-name="h" unicode="h" 
d="M1197 0h-342v855q0 171 -85 171q-117 0 -193 -93q-64 -78 -64 -163v-770h-342v1539h342v-598q37 143 112.5 199.5t229.5 56.5q141 0 241.5 -100.5t100.5 -241.5v-855z" />
    <glyph glyph-name="i" unicode="i" horiz-adv-x="683" 
d="M513 1368h-342v171h342v-171zM513 0h-342v1197h342v-1197z" />
    <glyph glyph-name="j" unicode="j" horiz-adv-x="684" 
d="M513 1368h-342v171h342v-171zM513 0q0 -141 -100.5 -241.5t-241.5 -100.5h-342v171h171q70 0 120.5 50.5t50.5 120.5v1197h342v-1197z" />
    <glyph glyph-name="k" unicode="k" horiz-adv-x="1197" 
d="M1197 0h-342l-342 428v-428h-342v1539h342v-769l342 427h342l-460 -600z" />
    <glyph glyph-name="l" unicode="l" horiz-adv-x="683" 
d="M513 0h-342v1539h342v-1539z" />
    <glyph glyph-name="m" unicode="m" horiz-adv-x="2052" 
d="M1881 0h-342v855q0 171 -85 171q-117 0 -193 -93q-64 -78 -64 -163v-770h-342v855q0 171 -85 171q-117 0 -193 -93q-64 -78 -64 -163v-770h-342v1197h342v-256q37 143 112.5 199.5t229.5 56.5q123 0 217.5 -78.5t117.5 -196.5q36 141 99 200q81 75 250 75
q141 0 241.5 -100.5t100.5 -241.5v-855z" />
    <glyph glyph-name="n" unicode="n" 
d="M1197 0h-342v855q0 171 -85 171q-117 0 -193 -93q-64 -78 -64 -163v-770h-342v1197h342v-256q37 143 112.5 199.5t229.5 56.5q141 0 241.5 -100.5t100.5 -241.5v-855z" />
    <glyph glyph-name="o" unicode="o" 
d="M1197 342q0 -140 -101 -241t-241 -101h-342q-141 0 -241.5 100.5t-100.5 241.5v513q0 141 100.5 241.5t241.5 100.5h342q141 0 241.5 -100.5t100.5 -241.5v-513zM855 342v513q0 70 -50.5 120.5t-120.5 50.5t-120.5 -50.5t-50.5 -120.5v-513q0 -71 50.5 -121t120.5 -50
t120.5 50t50.5 121z" />
    <glyph glyph-name="p" unicode="p" 
d="M1197 342q0 -141 -100.5 -241.5t-241.5 -100.5h-342v-342h-342v1539h342v-256q37 143 112.5 199.5t229.5 56.5q141 0 241.5 -100.5t100.5 -241.5v-513zM855 342v513q0 171 -85 171q-117 0 -193 -93q-64 -78 -64 -163v-599h171q70 0 120.5 50.5t50.5 120.5z" />
    <glyph glyph-name="q" unicode="q" 
d="M1197 -342h-342v342h-342q-141 0 -241.5 100.5t-100.5 241.5v513q0 141 100.5 241.5t241.5 100.5h171q107 0 159.5 -23t97.5 -89l85 112h171v-1539zM855 171v684q0 71 -50 121t-121 50q-57 0 -112 -50q-59 -54 -59 -121v-513q0 -70 50.5 -120.5t120.5 -50.5h171z" />
    <glyph glyph-name="r" unicode="r" horiz-adv-x="1026" 
d="M1024 853h-341q-71 0 -121 -50t-50 -120v-683h-341v1195h341v-342q40 342 342 342h170v-342z" />
    <glyph glyph-name="s" unicode="s" horiz-adv-x="1195" 
d="M1026 1026h-342q-173 0 -173 -144q0 -65 133 -138q207 -113 247 -146q133 -107 133 -255q0 -142 -99 -242.5t-241 -100.5h-513v171h342q171 0 171 142q0 66 -133 138q-208 114 -247 146q-133 107 -133 254q0 142 100 244t242 102h513v-171z" />
    <glyph glyph-name="t" unicode="t" horiz-adv-x="855" 
d="M855 0h-342q-141 0 -241.5 100.5t-100.5 241.5v684h-171v171h171l171 342h171v-342h342v-171h-342v-684q0 -64 52.5 -117.5t118.5 -53.5h171v-171z" />
    <glyph glyph-name="u" unicode="u" 
d="M1197 0h-342v257q-37 -144 -112.5 -200.5t-229.5 -56.5q-141 0 -241.5 100.5t-100.5 241.5v855h342v-855q0 -171 86 -171q116 0 192 93q64 78 64 164v769h342v-1197z" />
    <glyph glyph-name="v" unicode="v" horiz-adv-x="1197" 
d="M1197 1197l-427 -1197h-342l-428 1197h350l249 -855l248 855h350z" />
    <glyph glyph-name="w" unicode="w" horiz-adv-x="1881" 
d="M1881 1197l-427 -1197h-342l-171 479l-171 -479h-342l-428 1197h350l249 -855l175 603l-90 252h350l249 -855l248 855h350z" />
    <glyph glyph-name="x" unicode="x" horiz-adv-x="1197" 
d="M1187 1197l-412 -566l410 -631h-408l-217 335l-243 -335h-317l410 565l-410 632h408l218 -336l244 336h317z" />
    <glyph glyph-name="y" unicode="y" horiz-adv-x="1197" 
d="M1197 1197l-427 -1197q-52 -145 -200 -238q-165 -104 -399 -104v171q106 0 181.5 50t75.5 121l-428 1197h350l249 -855l248 855h350zM0 1197h350h-350z" />
    <glyph glyph-name="z" unicode="z" horiz-adv-x="1197" 
d="M1024 0h-853v171l512 853h-512v171h853v-171l-512 -853h512v-171z" />
    <glyph glyph-name="braceleft" unicode="{" horiz-adv-x="1026" 
d="M855 -342h-172q-341 39 -341 342v512q0 171 -156 171h-15v170h15q156 0 156 171v170q0 301 341 342l172 3l-1 -174q-171 -14 -171 -171v-170q0 -149 -116 -256q116 -108 116 -256v-512q0 -159 171 -171z" />
    <glyph glyph-name="bar" unicode="|" horiz-adv-x="853" 
d="M684 -342h-342v1881h342v-1881z" />
    <glyph glyph-name="braceright" unicode="}" horiz-adv-x="1026" 
d="M855 683h-15q-156 0 -156 -171v-512q0 -303 -341 -342h-172l1 171q171 12 171 171v512q0 148 116 256q-116 107 -116 256v170q0 157 -171 171l-1 174l172 -3q341 -41 341 -342v-170q0 -171 156 -171h15v-170z" />
    <glyph glyph-name="asciitilde" unicode="~" horiz-adv-x="1539" 
d="M1368 1026q0 -249 -96 -385q-90 -128 -246 -128q-109 0 -209 66l-152 123q-84 66 -153 66q-59 0 -117 -96q-53 -89 -53 -161h-171q0 266 75 387q80 128 267 128q109 0 209 -66l152 -124q83 -66 152 -66q60 0 118 96q53 89 53 160h171z" />
    <glyph glyph-name="Adieresis" unicode="&#xc4;" horiz-adv-x="1368" 
d="M1368 0h-303l-118 342h-526l-118 -342h-303l530 1539h308zM888 513l-204 593l-204 -593h408zM1026 1709h-171v342h171v-342zM513 1709h-171v342h171v-342z" />
    <glyph glyph-name="Aring" unicode="&#xc5;" horiz-adv-x="1368" 
d="M1368 0h-303l-118 342h-526l-118 -342h-303l530 1539h308zM888 513l-204 593l-204 -593h408zM1026 1794q0 -106 -100 -180.5t-242 -74.5t-242 74.5t-100 180.5q0 105 100 179.5t242 74.5t242 -74.5t100 -179.5zM855 1796q0 35 -50 60t-121 25t-121 -25t-50 -60
q0 -36 50 -61t121 -25t121 25t50 61z" />
    <glyph glyph-name="Ccedilla" unicode="&#xc7;" 
d="M1197 0h-271q14 -40 14 -85q0 -106 -70.5 -181t-175.5 -75q-38 0 -108 19l65 158q23 -6 36 -6q82 0 82 85q0 43 -21 64l-64 21q-212 0 -362.5 150.5t-150.5 362.5v513q0 212 150.5 362.5t362.5 150.5h342q64 0 117.5 -53.5t53.5 -117.5v-171h-171q0 71 -50 121t-121 50
q-141 0 -241.5 -100.5t-100.5 -241.5v-513q0 -142 100 -242t242 -100h342v-171z" />
    <glyph glyph-name="Eacute" unicode="&#xc9;" horiz-adv-x="1368" 
d="M1195 0h-1024v1536h1024v-171h-683v-512h513v-170h-513v-512h683v-171zM1111 2048l-342 -342h-171l172 342h341z" />
    <glyph glyph-name="Ntilde" unicode="&#xd1;" horiz-adv-x="1536" 
d="M1366 0h-78l-946 853v-853h-171v1536h78l946 -853v853h171v-1536zM1195 2048q-19 -165 -116 -256q-91 -86 -225 -86q-73 0 -123 44q-13 12 -66 83q-34 44 -67 44q-65 0 -85 -171h-171q19 165 117 257q91 85 224 85q74 0 124 -44q15 -14 67 -83q33 -44 66 -44q64 0 84 171
h171z" />
    <glyph glyph-name="Odieresis" unicode="&#xd6;" horiz-adv-x="1710" 
d="M1539 513q0 -212 -150.5 -362.5t-362.5 -150.5h-342q-212 0 -362.5 150.5t-150.5 362.5v513q0 212 150.5 362.5t362.5 150.5h342q212 0 362.5 -150.5t150.5 -362.5v-513zM1197 513v513q0 142 -100 242t-242 100t-242 -100t-100 -242v-513q0 -142 100 -242t242 -100
t242 100t100 242zM1197 1709h-171v342h171v-342zM684 1709h-171v342h171v-342z" />
    <glyph glyph-name="Udieresis" unicode="&#xdc;" horiz-adv-x="1539" 
d="M1368 513q0 -212 -150.5 -362.5t-362.5 -150.5h-171q-212 0 -362.5 150.5t-150.5 362.5v1026h342v-1026q0 -142 100 -242t242 -100t242 100t100 242v1026h171v-1026zM1197 1709h-171v342h171v-342zM684 1709h-171v342h171v-342z" />
    <glyph glyph-name="aacute" unicode="&#xe1;" 
d="M1197 0h-342v257q-37 -144 -112.5 -200.5t-229.5 -56.5q-141 0 -241.5 100.5t-100.5 241.5v171q0 142 100 242t242 100h342q0 70 -50.5 120.5t-120.5 50.5h-342v171h513q141 0 241.5 -100.5t100.5 -241.5v-855zM855 428v256h-171q-71 0 -121 -50t-50 -121v-171
q0 -171 86 -171q116 0 192 93q64 78 64 164zM1025 1707l-342 -342h-171l172 342h341z" />
    <glyph glyph-name="agrave" unicode="&#xe0;" 
d="M1197 0h-342v257q-37 -144 -112.5 -200.5t-229.5 -56.5q-141 0 -241.5 100.5t-100.5 241.5v171q0 142 100 242t242 100h342q0 70 -50.5 120.5t-120.5 50.5h-342v171h513q141 0 241.5 -100.5t100.5 -241.5v-855zM855 428v256h-171q-71 0 -121 -50t-50 -121v-171
q0 -171 86 -171q116 0 192 93q64 78 64 164zM1026 1368h-171l-342 342h342z" />
    <glyph glyph-name="acircumflex" unicode="&#xe2;" 
d="M1197 0h-342v257q-37 -144 -112.5 -200.5t-229.5 -56.5q-141 0 -241.5 100.5t-100.5 241.5v171q0 142 100 242t242 100h342q0 70 -50.5 120.5t-120.5 50.5h-342v171h513q141 0 241.5 -100.5t100.5 -241.5v-855zM855 428v256h-171q-71 0 -121 -50t-50 -121v-171
q0 -171 86 -171q116 0 192 93q64 78 64 164zM1024 1365h-170l-171 171l-171 -171h-170l256 342h170z" />
    <glyph glyph-name="adieresis" unicode="&#xe4;" 
d="M1197 0h-342v257q-37 -144 -112.5 -200.5t-229.5 -56.5q-141 0 -241.5 100.5t-100.5 241.5v171q0 142 100 242t242 100h342q0 70 -50.5 120.5t-120.5 50.5h-342v171h513q141 0 241.5 -100.5t100.5 -241.5v-855zM855 428v256h-171q-71 0 -121 -50t-50 -121v-171
q0 -171 86 -171q116 0 192 93q64 78 64 164zM1026 1368h-171v342h171v-342zM513 1368h-171v342h171v-342z" />
    <glyph glyph-name="atilde" unicode="&#xe3;" 
d="M1197 0h-342v257q-37 -144 -112.5 -200.5t-229.5 -56.5q-141 0 -241.5 100.5t-100.5 241.5v171q0 142 100 242t242 100h342q0 70 -50.5 120.5t-120.5 50.5h-342v171h513q141 0 241.5 -100.5t100.5 -241.5v-855zM855 428v256h-171q-71 0 -121 -50t-50 -121v-171
q0 -171 86 -171q116 0 192 93q64 78 64 164zM1195 1707q-19 -165 -116 -256q-91 -86 -225 -86q-73 0 -123 44q-13 12 -66 83q-34 44 -67 44q-65 0 -85 -171h-171q19 165 117 257q91 85 224 85q74 0 124 -44q15 -14 67 -83q33 -44 66 -44q64 0 84 171h171z" />
    <glyph glyph-name="aring" unicode="&#xe5;" 
d="M1197 0h-342v257q-37 -144 -112.5 -200.5t-229.5 -56.5q-141 0 -241.5 100.5t-100.5 241.5v171q0 142 100 242t242 100h342q0 70 -50.5 120.5t-120.5 50.5h-342v171h513q141 0 241.5 -100.5t100.5 -241.5v-855zM855 428v256h-171q-71 0 -121 -50t-50 -121v-171
q0 -171 86 -171q116 0 192 93q64 78 64 164zM1026 1623q0 -106 -100 -180.5t-242 -74.5t-242 74.5t-100 180.5q0 105 100 179.5t242 74.5t242 -74.5t100 -179.5zM855 1625q0 35 -50 60t-121 25t-121 -25t-50 -60q0 -36 50 -61t121 -25t121 25t50 61z" />
    <glyph glyph-name="ccedilla" unicode="&#xe7;" horiz-adv-x="1195" 
d="M1026 0h-185q14 -40 14 -85q0 -106 -70.5 -181t-175.5 -75q-38 0 -108 19l65 158q23 -6 36 -6q82 0 82 85t-85 85h-86q-141 0 -241.5 100.5t-100.5 241.5v513q0 141 100.5 241.5t241.5 100.5h342q71 0 121 -50t50 -121v-171h-171q-20 171 -171 171q-70 0 -120.5 -50.5
t-50.5 -120.5v-513q0 -71 50.5 -121t120.5 -50h342v-171z" />
    <glyph glyph-name="eacute" unicode="&#xe9;" 
d="M1197 0h-684q-141 0 -241.5 100.5t-100.5 241.5v513q0 141 100.5 241.5t241.5 100.5h342q141 0 241.5 -100.5t100.5 -241.5v-342h-684v-171q0 -71 50.5 -121t120.5 -50h513v-171zM855 684v171q0 70 -50.5 120.5t-120.5 50.5t-120.5 -50.5t-50.5 -120.5v-171h342z
M1025 1707l-342 -342h-171l172 342h341z" />
    <glyph glyph-name="egrave" unicode="&#xe8;" 
d="M1197 0h-684q-141 0 -241.5 100.5t-100.5 241.5v513q0 141 100.5 241.5t241.5 100.5h342q141 0 241.5 -100.5t100.5 -241.5v-342h-684v-171q0 -71 50.5 -121t120.5 -50h513v-171zM855 684v171q0 70 -50.5 120.5t-120.5 50.5t-120.5 -50.5t-50.5 -120.5v-171h342z
M855 1368h-171l-342 342h342z" />
    <glyph glyph-name="ecircumflex" unicode="&#xea;" 
d="M1197 0h-684q-141 0 -241.5 100.5t-100.5 241.5v513q0 141 100.5 241.5t241.5 100.5h342q141 0 241.5 -100.5t100.5 -241.5v-342h-684v-171q0 -71 50.5 -121t120.5 -50h513v-171zM855 684v171q0 70 -50.5 120.5t-120.5 50.5t-120.5 -50.5t-50.5 -120.5v-171h342z
M1024 1365h-170l-171 171l-171 -171h-170l256 342h170z" />
    <glyph glyph-name="edieresis" unicode="&#xeb;" 
d="M1197 0h-684q-141 0 -241.5 100.5t-100.5 241.5v513q0 141 100.5 241.5t241.5 100.5h342q141 0 241.5 -100.5t100.5 -241.5v-342h-684v-171q0 -71 50.5 -121t120.5 -50h513v-171zM855 684v171q0 70 -50.5 120.5t-120.5 50.5t-120.5 -50.5t-50.5 -120.5v-171h342z
M1026 1368h-171v342h171v-342zM513 1368h-171v342h171v-342z" />
    <glyph glyph-name="iacute" unicode="&#xed;" horiz-adv-x="683" 
d="M513 0h-341v1195h341v-1195zM684 1707l-342 -342h-171l172 342h341z" />
    <glyph glyph-name="igrave" unicode="&#xec;" horiz-adv-x="683" 
d="M513 0h-341v1195h341v-1195zM514 1368h-171l-342 342h342z" />
    <glyph glyph-name="icircumflex" unicode="&#xee;" horiz-adv-x="683" 
d="M512 0h-341v1195h341v-1195zM682 1365h-170l-171 171l-171 -171h-170l256 342h170z" />
    <glyph glyph-name="idieresis" unicode="&#xef;" horiz-adv-x="683" 
d="M512 0h-341v1195h341v-1195zM684 1368h-171v342h171v-342zM171 1368h-171v342h171v-342z" />
    <glyph glyph-name="ntilde" unicode="&#xf1;" 
d="M1197 0h-342v855q0 171 -85 171q-117 0 -193 -93q-64 -78 -64 -163v-770h-342v1197h342v-256q37 143 112.5 199.5t229.5 56.5q141 0 241.5 -100.5t100.5 -241.5v-855zM1195 1707q-19 -165 -116 -256q-91 -86 -225 -86q-73 0 -123 44q-13 12 -66 83q-34 44 -67 44
q-65 0 -85 -171h-171q19 165 117 257q91 85 224 85q74 0 124 -44q15 -14 67 -83q33 -44 66 -44q64 0 84 171h171z" />
    <glyph glyph-name="oacute" unicode="&#xf3;" 
d="M1197 342q0 -140 -101 -241t-241 -101h-342q-141 0 -241.5 100.5t-100.5 241.5v513q0 141 100.5 241.5t241.5 100.5h342q141 0 241.5 -100.5t100.5 -241.5v-513zM855 342v513q0 70 -50.5 120.5t-120.5 50.5t-120.5 -50.5t-50.5 -120.5v-513q0 -71 50.5 -121t120.5 -50
t120.5 50t50.5 121zM1025 1707l-342 -342h-171l172 342h341z" />
    <glyph glyph-name="ograve" unicode="&#xf2;" 
d="M1197 342q0 -140 -101 -241t-241 -101h-342q-141 0 -241.5 100.5t-100.5 241.5v513q0 141 100.5 241.5t241.5 100.5h342q141 0 241.5 -100.5t100.5 -241.5v-513zM855 342v513q0 70 -50.5 120.5t-120.5 50.5t-120.5 -50.5t-50.5 -120.5v-513q0 -71 50.5 -121t120.5 -50
t120.5 50t50.5 121zM855 1368h-171l-342 342h342z" />
    <glyph glyph-name="ocircumflex" unicode="&#xf4;" 
d="M1197 342q0 -140 -101 -241t-241 -101h-342q-141 0 -241.5 100.5t-100.5 241.5v513q0 141 100.5 241.5t241.5 100.5h342q141 0 241.5 -100.5t100.5 -241.5v-513zM855 342v513q0 70 -50.5 120.5t-120.5 50.5t-120.5 -50.5t-50.5 -120.5v-513q0 -71 50.5 -121t120.5 -50
t120.5 50t50.5 121zM1024 1365h-170l-171 171l-171 -171h-170l256 342h170z" />
    <glyph glyph-name="odieresis" unicode="&#xf6;" 
d="M1197 342q0 -140 -101 -241t-241 -101h-342q-141 0 -241.5 100.5t-100.5 241.5v513q0 141 100.5 241.5t241.5 100.5h342q141 0 241.5 -100.5t100.5 -241.5v-513zM855 342v513q0 70 -50.5 120.5t-120.5 50.5t-120.5 -50.5t-50.5 -120.5v-513q0 -71 50.5 -121t120.5 -50
t120.5 50t50.5 121zM1026 1368h-171v342h171v-342zM513 1368h-171v342h171v-342z" />
    <glyph glyph-name="otilde" unicode="&#xf5;" 
d="M1197 342q0 -140 -101 -241t-241 -101h-342q-141 0 -241.5 100.5t-100.5 241.5v513q0 141 100.5 241.5t241.5 100.5h342q141 0 241.5 -100.5t100.5 -241.5v-513zM855 342v513q0 70 -50.5 120.5t-120.5 50.5t-120.5 -50.5t-50.5 -120.5v-513q0 -71 50.5 -121t120.5 -50
t120.5 50t50.5 121zM1110 1707q-19 -165 -116 -256q-91 -86 -225 -86q-73 0 -123 44q-13 12 -66 83q-34 44 -67 44q-65 0 -85 -171h-171q19 165 117 257q91 85 224 85q74 0 124 -44q15 -14 67 -83q33 -44 66 -44q64 0 84 171h171z" />
    <glyph glyph-name="uacute" unicode="&#xfa;" 
d="M1197 0h-342v257q-37 -144 -112.5 -200.5t-229.5 -56.5q-141 0 -241.5 100.5t-100.5 241.5v855h342v-855q0 -171 86 -171q116 0 192 93q64 78 64 164v769h342v-1197zM1007 1707l-342 -342h-171l172 342h341z" />
    <glyph glyph-name="ugrave" unicode="&#xf9;" 
d="M1197 0h-342v257q-37 -144 -112.5 -200.5t-229.5 -56.5q-141 0 -241.5 100.5t-100.5 241.5v855h342v-855q0 -171 86 -171q116 0 192 93q64 78 64 164v769h342v-1197zM855 1368h-171l-342 342h342z" />
    <glyph glyph-name="ucircumflex" unicode="&#xfb;" 
d="M1197 0h-342v257q-37 -144 -112.5 -200.5t-229.5 -56.5q-141 0 -241.5 100.5t-100.5 241.5v855h342v-855q0 -171 86 -171q116 0 192 93q64 78 64 164v769h342v-1197zM1024 1365h-170l-171 171l-171 -171h-170l256 342h170z" />
    <glyph glyph-name="udieresis" unicode="&#xfc;" 
d="M1197 0h-342v257q-37 -144 -112.5 -200.5t-229.5 -56.5q-141 0 -241.5 100.5t-100.5 241.5v855h342v-855q0 -171 86 -171q116 0 192 93q64 78 64 164v769h342v-1197zM1026 1368h-171v342h171v-342zM513 1368h-171v342h171v-342z" />
    <glyph glyph-name="dagger" unicode="&#x2020;" horiz-adv-x="855" 
d="M855 1026h-171v-1368h-342v1368h-171v171h171v342h342v-342h171v-171z" />
    <glyph glyph-name="degree" unicode="&#xb0;" horiz-adv-x="1024" 
d="M854 1194q0 -141 -100.5 -241t-241.5 -100t-241 100.5t-100 241.5q0 140 100.5 240.5t240.5 100.5q141 0 241.5 -100.5t100.5 -241.5zM683 1195q0 70 -50 120t-121 50q-70 0 -120 -50t-50 -120q0 -71 50 -121t120 -50q71 0 121 50t50 121z" />
    <glyph glyph-name="cent" unicode="&#xa2;" horiz-adv-x="1195" 
d="M1026 0h-171v-171h-171v171h-171q-141 0 -241.5 100.5t-100.5 241.5v513q0 141 100.5 241.5t241.5 100.5h171v171h171v-171h171v-171h-342q-70 0 -120.5 -50.5t-50.5 -120.5v-513q0 -71 50.5 -121t120.5 -50h342v-171z" />
    <glyph glyph-name="sterling" unicode="&#xa3;" horiz-adv-x="1197" 
d="M1197 0h-1026v684h-171v171h171v342q0 140 101 241t241 101h513v-171h-342q-171 0 -171 -171v-342h342v-171h-342v-513h684v-171z" />
    <glyph glyph-name="section" unicode="&#xa7;" horiz-adv-x="1026" 
d="M855 257q0 -107 -75 -182t-181 -75h-428v171h428q35 0 60 25t25 61q0 69 -133 140q-223 120 -247 138q-133 98 -133 235q0 133 123 285q-123 96 -123 228q0 106 75 181t182 75h427v-171h-427q-36 0 -61 -25t-25 -60q0 -70 133 -141q223 -120 247 -138q133 -98 133 -234
q0 -134 -123 -286q123 -96 123 -227zM684 770q0 81 -240 197q-102 -117 -102 -197q0 -82 240 -198q102 117 102 198z" />
    <glyph glyph-name="bullet" unicode="&#x2022;" horiz-adv-x="1195" 
d="M1026 770q0 -178 -125 -303t-302 -125q-178 0 -303 125t-125 303q0 177 125 302t303 125q177 0 302 -125t125 -302z" />
    <glyph glyph-name="paragraph" unicode="&#xb6;" horiz-adv-x="1197" 
d="M1026 0h-171v1368h-171v-1368h-171v684h-171q-142 0 -242 100t-100 242v171q0 142 100 242t242 100h684v-1539zM513 855v513h-171v-513h171z" />
    <glyph glyph-name="germandbls" unicode="&#xdf;" horiz-adv-x="1539" 
d="M1368 342q0 -142 -100 -242t-242 -100h-171v171q71 0 121 50t50 121q0 128 -107 235t-235 107v684h-171v-1368h-342v1197q0 142 100 242t242 100h171q142 0 242 -100t100 -242q0 -154 -116 -256q231 -138 337 -268q121 -148 121 -331z" />
    <glyph glyph-name="registered" unicode="&#xae;" horiz-adv-x="1707" 
d="M1536 512q0 -211 -150.5 -361.5t-361.5 -150.5h-341q-211 0 -361.5 150.5t-150.5 361.5v341q0 211 150.5 361.5t361.5 150.5h341q211 0 361.5 -150.5t150.5 -361.5v-341zM1365 512v341q0 141 -100 241t-241 100h-341q-141 0 -241 -100t-100 -241v-341q0 -141 100 -241
t241 -100h341q140 0 240.5 100.5t100.5 240.5zM1195 341h-170v86q0 85 -171 85h-171v-171h-170v685l512 -2q70 0 120 -50.5t50 -120.5v-85q0 -151 -170 -171q170 0 170 -77v-179zM1025 768q0 85 -86 85h-256v-171h256q86 0 86 86z" />
    <glyph glyph-name="copyright" unicode="&#xa9;" horiz-adv-x="1707" 
d="M1536 512q0 -211 -150.5 -361.5t-361.5 -150.5h-341q-211 0 -361.5 150.5t-150.5 361.5v341q0 211 150.5 361.5t361.5 150.5h341q211 0 361.5 -150.5t150.5 -361.5v-341zM1365 512v341q0 141 -100 241t-241 100h-341q-141 0 -241 -100t-100 -241v-341q0 -141 100 -241
t241 -100h341q140 0 240.5 100.5t100.5 240.5zM1195 682h-170q-20 171 -171 171q-70 0 -120.5 -50.5t-50.5 -120.5q0 -72 50 -120.5t122 -48.5h171v-171h-171q-143 0 -242.5 99t-99.5 242q0 146 102.5 243.5t249.5 97.5q311 0 330 -342z" />
    <glyph glyph-name="trademark" unicode="&#x2122;" horiz-adv-x="1710" 
d="M1536 853h-171v342l-256 -256l-256 256v-342h-170v683h85l341 -341l341 341h86v-683zM512 1365h-171v-512h-170v512h-171v171h512v-171z" />
    <glyph glyph-name="acute" unicode="&#xb4;" horiz-adv-x="1024" 
d="M854 1707l-342 -342h-171l172 342h341z" />
    <glyph glyph-name="dieresis" unicode="&#xa8;" horiz-adv-x="1024" 
d="M855 1539h-171v342h171v-342zM342 1539h-171v342h171v-342z" />
    <glyph glyph-name="AE" unicode="&#xc6;" horiz-adv-x="1881" 
d="M1710 0h-855v342h-361l-152 -342h-342l684 1539h1026v-171h-513v-513h342v-171h-342v-513h513v-171zM855 513v641l-285 -641h285z" />
    <glyph glyph-name="Oslash" unicode="&#xd8;" horiz-adv-x="1710" 
d="M1539 513q0 -212 -150.5 -362.5t-362.5 -150.5h-342q-152 0 -278 82l-64 -82h-171l132 170q-132 146 -132 343v513q0 212 150.5 362.5t362.5 150.5h342q152 0 278 -82l64 82h171l-132 -170q132 -146 132 -343v-513zM1129 1231q-103 137 -274 137q-142 0 -242 -100
t-100 -242v-513q0 -33 6 -65zM1197 513v513q0 33 -6 65l-610 -783q103 -137 274 -137q142 0 242 100t100 242z" />
    <glyph glyph-name="plusminus" unicode="&#xb1;" horiz-adv-x="1368" 
d="M1195 683h-341v-342h-342v342h-341v343h341v342h342v-342h341v-343zM1195 -171h-1024v342h1024v-342z" />
    <glyph glyph-name="yen" unicode="&#xa5;" horiz-adv-x="1368" 
d="M1365 1539l-399 -855h231v-171h-310l-32 -68v-103h342v-171h-342v-171h-342v171h-342v171h342v145l-13 26h-329v171h246l-417 855h381l360 -739l344 739h280z" />
    <glyph glyph-name="mu" unicode="&#xb5;" 
d="M1197 0h-341l-1 132q-146 -130 -342 -130v-344h-342l2 1539h341v-853q0 -70 50.5 -120.5t120.5 -50.5t120.5 50.5t50.5 120.5v853h341v-1197z" />
    <glyph glyph-name="mu" unicode="&#x3bc;" 
d="M1197 0h-341l-1 132q-146 -130 -342 -130v-344h-342l2 1539h341v-853q0 -70 50.5 -120.5t120.5 -50.5t120.5 50.5t50.5 120.5v853h341v-1197z" />
    <glyph glyph-name="ordfeminine" unicode="&#xaa;" horiz-adv-x="1197" 
d="M1026 684h-342v46q-79 -46 -171 -46q-342 0 -342 257q0 256 342 256h171q0 71 -50 121t-121 50h-171v171h342q142 0 242 -100t100 -242v-513zM684 941v85h-85q-36 0 -61 -25t-25 -60q0 -36 25 -61t61 -25q35 0 60 25t25 61zM1026 342h-855v171h855v-171z" />
    <glyph glyph-name="ordmasculine" unicode="&#xba;" horiz-adv-x="1197" 
d="M1026 1112q0 -178 -125 -303t-302 -125q-178 0 -303 125t-125 303q0 177 125 302t303 125q177 0 302 -125t125 -302zM684 941v342q0 35 -25 60t-60 25q-36 0 -61 -25t-25 -60v-342q0 -36 25 -61t61 -25q35 0 60 25t25 61zM1026 342h-855v171h855v-171z" />
    <glyph glyph-name="ae" unicode="&#xe6;" horiz-adv-x="2052" 
d="M1881 0h-1026v131q-146 -131 -342 -131q-142 0 -242 100t-100 242v171q0 142 100 242t242 100h342q0 70 -50.5 120.5t-120.5 50.5h-342v171h513q92 0 171 -46q79 46 171 46h342q141 0 241.5 -100.5t100.5 -241.5v-342h-684v-171q0 -71 50.5 -121t120.5 -50h513v-171z
M1539 684v171q0 70 -50.5 120.5t-120.5 50.5t-120.5 -50.5t-50.5 -120.5v-171h342zM855 342v342h-171q-71 0 -121 -50t-50 -121v-171q0 -71 50 -121t121 -50t121 50t50 121z" />
    <glyph glyph-name="oslash" unicode="&#xf8;" 
d="M1195 341q0 -140 -100.5 -240.5t-240.5 -100.5h-342q-73 0 -147 33l-23 -33h-171l84 117q-84 117 -84 224v512q0 141 100 241.5t241 100.5h342q73 0 147 -34l23 34h171l-84 -118q84 -117 84 -224v-512zM835 930q-58 94 -152 94q-70 0 -120.5 -50.5t-50.5 -120.5v-376z
M854 341v376l-324 -453q60 -93 153 -93q70 0 120.5 50t50.5 120z" />
    <glyph glyph-name="questiondown" unicode="&#xbf;" horiz-adv-x="1197" 
d="M855 1197h-342v342h342v-342zM1026 0h-513q-142 0 -242 100t-100 242q0 143 89 253l164 178q89 110 89 253h342q0 -183 -89 -310q-6 -9 -164 -178q-89 -94 -89 -196q0 -71 50 -121t121 -50h342v-171z" />
    <glyph glyph-name="exclamdown" unicode="&#xa1;" horiz-adv-x="855" 
d="M683 1198h-341v341h341v-341zM683 3h-341v1024h341v-1024z" />
    <glyph glyph-name="logicalnot" unicode="&#xac;" horiz-adv-x="1195" 
d="M1024 342h-170v170h-683v342h853v-512z" />
    <glyph glyph-name="florin" unicode="&#x192;" horiz-adv-x="1026" 
d="M1024 1365h-186q-64 0 -109.5 -45.5t-45.5 -109.5v-357h171v-171h-171l-1 -698q0 -135 -95.5 -230.5t-230.5 -95.5h-356v171h186q64 0 109.5 45.5t45.5 109.5l1 698h-171v171h171v357q0 135 95.5 230.5t230.5 95.5h356v-171z" />
    <glyph glyph-name="guillemotleft" unicode="&#xab;" horiz-adv-x="1368" 
d="M1283 0h-257l-342 513l342 513h257l-342 -513zM770 0h-257l-342 513l342 513h257l-342 -513z" />
    <glyph glyph-name="guillemotright" unicode="&#xbb;" horiz-adv-x="1368" 
d="M1197 513l-342 -513h-256l342 513l-342 513h256zM684 513l-342 -513h-256l342 513l-342 513h256z" />
    <glyph glyph-name="ellipsis" unicode="&#x2026;" horiz-adv-x="1710" 
d="M1535 0h-342v341h342v-341zM1023 0h-341v341h341v-341zM511 0h-341v341h341v-341z" />
    <glyph glyph-name="nonbreakingspace" unicode="&#xa0;" 
 />
    <glyph glyph-name="Agrave" unicode="&#xc0;" horiz-adv-x="1368" 
d="M1368 0h-303l-118 342h-526l-118 -342h-303l530 1539h308zM888 513l-204 593l-204 -593h408zM855 1709h-171l-342 342h342z" />
    <glyph glyph-name="Atilde" unicode="&#xc3;" horiz-adv-x="1368" 
d="M1368 0h-303l-118 342h-526l-118 -342h-303l530 1539h308zM888 513l-204 593l-204 -593h408zM1110 2048q-19 -165 -116 -256q-91 -86 -225 -86q-73 0 -123 44q-13 12 -66 83q-34 44 -67 44q-65 0 -85 -171h-171q19 165 117 257q91 85 224 85q74 0 124 -44q15 -14 67 -83
q33 -44 66 -44q64 0 84 171h171z" />
    <glyph glyph-name="Otilde" unicode="&#xd5;" horiz-adv-x="1710" 
d="M1539 513q0 -212 -150.5 -362.5t-362.5 -150.5h-342q-212 0 -362.5 150.5t-150.5 362.5v513q0 212 150.5 362.5t362.5 150.5h342q212 0 362.5 -150.5t150.5 -362.5v-513zM1197 513v513q0 142 -100 242t-242 100t-242 -100t-100 -242v-513q0 -142 100 -242t242 -100
t242 100t100 242zM1281 2048q-19 -165 -116 -256q-91 -86 -225 -86q-73 0 -123 44q-13 12 -66 83q-34 44 -67 44q-65 0 -85 -171h-171q19 165 117 257q91 85 224 85q74 0 124 -44q15 -14 67 -83q33 -44 66 -44q64 0 84 171h171z" />
    <glyph glyph-name="OE" unicode="&#x152;" horiz-adv-x="2223" 
d="M2051 0h-1367q-212 0 -362.5 150.5t-150.5 362.5v513q0 213 150 363t363 150l1367 -3v-171h-683v-512h513v-170h-513v-512h683v-171zM1026 217v1105q-79 46 -171 46q-142 0 -242 -100t-100 -242v-513q0 -142 100 -242t242 -100q92 0 171 46z" />
    <glyph glyph-name="oe" unicode="&#x153;" horiz-adv-x="2048" 
d="M1881 0h-686q-84 0 -171 46q-87 -46 -170 -46h-342q-141 0 -241 100t-100 241v512q0 141 100 241.5t241 100.5h342q83 0 170 -46q87 46 171 46h341q141 0 241.5 -100.5t100.5 -241.5v-341h-683v-171q0 -70 50 -120t121 -50h515v-171zM1536 683v170q0 70 -50.5 120.5
t-119.5 50.5q-70 0 -120.5 -50.5t-50.5 -120.5v-170h341zM854 341v512q0 70 -50.5 120.5t-120.5 50.5t-120.5 -50.5t-50.5 -120.5v-512q0 -70 50 -120t121 -50t121 50t50 120z" />
    <glyph glyph-name="endash" unicode="&#x2013;" horiz-adv-x="1026" 
d="M855 513h-684v342h684v-342z" />
    <glyph glyph-name="emdash" unicode="&#x2014;" horiz-adv-x="1710" 
d="M1539 513h-1368v342h1368v-342z" />
    <glyph glyph-name="quotedblleft" unicode="&#x201c;" horiz-adv-x="1195" 
d="M1024 853h-341v342q0 302 341 341v-171q-165 -6 -171 -170h171v-342zM512 853h-341v342q0 302 341 341v-171q-165 -6 -171 -170h171v-342z" />
    <glyph glyph-name="quotedblright" unicode="&#x201d;" horiz-adv-x="1195" 
d="M1024 1195q0 -303 -341 -342v171q165 6 171 171h-171v341h341v-341zM512 1195q0 -303 -341 -342v171q165 6 171 171h-171v341h341v-341z" />
    <glyph glyph-name="quoteleft" unicode="&#x2018;" horiz-adv-x="683" 
d="M512 853h-341v342q0 302 341 341v-171q-165 -6 -171 -170h171v-342z" />
    <glyph glyph-name="quoteright" unicode="&#x2019;" horiz-adv-x="683" 
d="M512 1195q0 -303 -341 -342v171q165 6 171 171h-171v341h341v-341z" />
    <glyph glyph-name="divide" unicode="&#xf7;" horiz-adv-x="1368" 
d="M855 1026h-342v342h342v-342zM1197 513h-1026v342h1026v-342zM855 0h-342v342h342v-342z" />
    <glyph glyph-name="ydieresis" unicode="&#xff;" horiz-adv-x="1197" 
d="M1197 1197l-427 -1197q-52 -145 -200 -238q-165 -104 -399 -104v171q106 0 181.5 50t75.5 121l-428 1197h350l249 -855l248 855h350zM0 1197h350h-350zM941 1368h-171v342h171v-342zM428 1368h-171v342h171v-342z" />
    <glyph glyph-name="Ydieresis" unicode="&#x178;" horiz-adv-x="1368" 
d="M1365 1539l-510 -1094v-445h-342v487l-513 1052h381l360 -739l344 739h280zM1112 1709h-171v342h171v-342zM599 1709h-171v342h171v-342z" />
    <glyph glyph-name="currency" unicode="&#xa4;" 
d="M1172 317l-121 -121l-139 139q-104 -78 -228 -78t-228 78l-139 -139l-121 121l146 145q-85 137 -85 308q0 170 85 307l-146 145l121 121l139 -139q104 79 228 79t228 -79l139 139l121 -121l-146 -145q86 -137 86 -307q0 -171 -86 -308zM941 770q0 141 -75.5 241.5
t-181.5 100.5t-181 -100.5t-75 -241.5q0 -142 75 -242t181 -100t181.5 100t75.5 242z" />
    <glyph glyph-name="guilsinglleft" unicode="&#x2039;" horiz-adv-x="684" 
d="M599 0h-257l-342 513l342 513h257l-342 -513z" />
    <glyph glyph-name="guilsinglright" unicode="&#x203a;" horiz-adv-x="684" 
d="M684 513l-342 -513h-256l342 513l-342 513h256z" />
    <glyph glyph-name="daggerdbl" unicode="&#x2021;" horiz-adv-x="1026" 
d="M855 684h-171v-1026h-342v1026h-171v171h171v171h-171v171h171v342h342v-342h171v-171h-171v-171h171v-171z" />
    <glyph glyph-name="periodcentered" unicode="&#xb7;" horiz-adv-x="683" 
d="M513 513h-342v342h342v-342z" />
    <glyph glyph-name="periodcentered" unicode="&#x2219;" horiz-adv-x="683" 
d="M513 513h-342v342h342v-342z" />
    <glyph glyph-name="quotesinglbase" unicode="&#x201a;" horiz-adv-x="683" 
d="M512 0q0 -303 -341 -341v170q153 18 171 171h-171v341h341v-341z" />
    <glyph glyph-name="quotedblbase" unicode="&#x201e;" horiz-adv-x="1195" 
d="M1024 0q0 -303 -341 -341v170q153 18 171 171h-171v341h341v-341zM512 0q0 -303 -341 -341v170q153 18 171 171h-171v341h341v-341z" />
    <glyph glyph-name="perthousand" unicode="&#x2030;" horiz-adv-x="2736" 
d="M2565 342q0 -142 -125 -242t-302 -100q-126 0 -229 53t-156 140q-53 -87 -155 -139q-105 -54 -230 -54q-177 0 -302 100t-125 242q0 28 5 55l-176 -397h-171l684 1539h171l-457 -1027q124 172 371 172q125 0 230 -54q102 -52 155 -139q53 87 156 140t229 53
q177 0 302 -100t125 -242zM2223 342q0 71 -25 121t-60 50q-36 0 -61 -50t-25 -121t25 -121t61 -50q35 0 60 50t25 121zM1454 342q0 71 -25.5 121t-60.5 50t-60 -50t-25 -121t25 -121t60 -50t60.5 50t25.5 121zM941 1197q0 -142 -125.5 -242t-302.5 -100t-302 100t-125 242
t125 242t302 100t302.5 -100t125.5 -242zM599 1197q0 71 -25.5 121t-60.5 50t-60 -50t-25 -121t25 -121t60 -50t60.5 50t25.5 121z" />
    <glyph glyph-name="Acircumflex" unicode="&#xc2;" horiz-adv-x="1368" 
d="M1368 0h-303l-118 342h-526l-118 -342h-303l530 1539h308zM888 513l-204 593l-204 -593h408zM1024 1706h-170l-171 171l-171 -171h-170l256 342h170z" />
    <glyph glyph-name="Ecircumflex" unicode="&#xca;" horiz-adv-x="1368" 
d="M1195 0h-1024v1536h1024v-171h-683v-512h513v-170h-513v-512h683v-171zM1005 1706h-170l-171 171l-171 -171h-170l256 342h170z" />
    <glyph glyph-name="Aacute" unicode="&#xc1;" horiz-adv-x="1368" 
d="M1368 0h-303l-118 342h-526l-118 -342h-303l530 1539h308zM888 513l-204 593l-204 -593h408zM1111 2048l-342 -342h-171l172 342h341z" />
    <glyph glyph-name="Edieresis" unicode="&#xcb;" horiz-adv-x="1368" 
d="M1195 0h-1024v1536h1024v-171h-683v-512h513v-170h-513v-512h683v-171zM1012 1709h-171v342h171v-342zM499 1709h-171v342h171v-342z" />
    <glyph glyph-name="Egrave" unicode="&#xc8;" horiz-adv-x="1368" 
d="M1195 0h-1024v1536h1024v-171h-683v-512h513v-170h-513v-512h683v-171zM855 1709h-171l-342 342h342z" />
    <glyph glyph-name="Iacute" unicode="&#xcd;" horiz-adv-x="684" 
d="M511 0h-341v1536h341v-1536zM768 2048l-342 -342h-171l172 342h341z" />
    <glyph glyph-name="Icircumflex" unicode="&#xce;" horiz-adv-x="684" 
d="M511 0h-341v1536h341v-1536zM682 1706h-170l-171 171l-171 -171h-170l256 342h170z" />
    <glyph glyph-name="Idieresis" unicode="&#xcf;" horiz-adv-x="684" 
d="M511 0h-341v1536h341v-1536zM684 1709h-171v342h171v-342zM171 1709h-171v342h171v-342z" />
    <glyph glyph-name="Igrave" unicode="&#xcc;" horiz-adv-x="684" 
d="M511 0h-341v1536h341v-1536zM427 1709h-171l-342 342h342z" />
    <glyph glyph-name="Oacute" unicode="&#xd3;" horiz-adv-x="1710" 
d="M1539 513q0 -212 -150.5 -362.5t-362.5 -150.5h-342q-212 0 -362.5 150.5t-150.5 362.5v513q0 212 150.5 362.5t362.5 150.5h342q212 0 362.5 -150.5t150.5 -362.5v-513zM1197 513v513q0 142 -100 242t-242 100t-242 -100t-100 -242v-513q0 -142 100 -242t242 -100
t242 100t100 242zM1282 2048l-342 -342h-171l172 342h341z" />
    <glyph glyph-name="Ocircumflex" unicode="&#xd4;" horiz-adv-x="1710" 
d="M1539 513q0 -212 -150.5 -362.5t-362.5 -150.5h-342q-212 0 -362.5 150.5t-150.5 362.5v513q0 212 150.5 362.5t362.5 150.5h342q212 0 362.5 -150.5t150.5 -362.5v-513zM1197 513v513q0 142 -100 242t-242 100t-242 -100t-100 -242v-513q0 -142 100 -242t242 -100
t242 100t100 242zM1195 1706h-170l-171 171l-171 -171h-170l256 342h170z" />
    <glyph glyph-name="Ograve" unicode="&#xd2;" horiz-adv-x="1710" 
d="M1539 513q0 -212 -150.5 -362.5t-362.5 -150.5h-342q-212 0 -362.5 150.5t-150.5 362.5v513q0 212 150.5 362.5t362.5 150.5h342q212 0 362.5 -150.5t150.5 -362.5v-513zM1197 513v513q0 142 -100 242t-242 100t-242 -100t-100 -242v-513q0 -142 100 -242t242 -100
t242 100t100 242zM941 1709h-171l-342 342h342z" />
    <glyph glyph-name="Uacute" unicode="&#xda;" horiz-adv-x="1539" 
d="M1368 513q0 -212 -150.5 -362.5t-362.5 -150.5h-171q-212 0 -362.5 150.5t-150.5 362.5v1026h342v-1026q0 -142 100 -242t242 -100t242 100t100 242v1026h171v-1026zM1282 2048l-342 -342h-171l172 342h341z" />
    <glyph glyph-name="Ucircumflex" unicode="&#xdb;" horiz-adv-x="1539" 
d="M1368 513q0 -212 -150.5 -362.5t-362.5 -150.5h-171q-212 0 -362.5 150.5t-150.5 362.5v1026h342v-1026q0 -142 100 -242t242 -100t242 100t100 242v1026h171v-1026zM1195 1706h-170l-171 171l-171 -171h-170l256 342h170z" />
    <glyph glyph-name="Ugrave" unicode="&#xd9;" horiz-adv-x="1539" 
d="M1368 513q0 -212 -150.5 -362.5t-362.5 -150.5h-171q-212 0 -362.5 150.5t-150.5 362.5v1026h342v-1026q0 -142 100 -242t242 -100t242 100t100 242v1026h171v-1026zM941 1709h-171l-342 342h342z" />
    <glyph glyph-name="circumflex" unicode="&#x2c6;" horiz-adv-x="1024" 
d="M853 1365h-170l-171 171l-171 -171h-170l256 342h170z" />
    <glyph glyph-name="tilde" unicode="&#x2dc;" horiz-adv-x="1197" 
d="M1024 1878q-19 -165 -116 -256q-91 -86 -225 -86q-73 0 -123 44q-13 12 -66 83q-34 44 -67 44q-65 0 -85 -171h-171q19 165 117 257q91 85 224 85q74 0 124 -44q15 -14 67 -83q33 -44 66 -44q64 0 84 171h171z" />
    <glyph glyph-name="macron" unicode="&#xaf;" horiz-adv-x="1024" 
d="M853 1365h-682v171h682v-171z" />
    <glyph glyph-name="macron" unicode="&#x2c9;" horiz-adv-x="1024" 
d="M853 1365h-682v171h682v-171z" />
    <glyph glyph-name="cedilla" unicode="&#xb8;" horiz-adv-x="1024" 
d="M730 -256q0 -99 -73.5 -177.5t-172.5 -78.5q-38 0 -108 19l65 158q23 -6 36 -6q82 0 82 85t-85 85h-86v171h86q106 0 181 -75t75 -181z" />
    <glyph glyph-name="Scaron" unicode="&#x160;" horiz-adv-x="1195" 
 />
    <glyph glyph-name="scaron" unicode="&#x161;" horiz-adv-x="1195" 
 />
    <glyph glyph-name="Yacute" unicode="&#xdd;" horiz-adv-x="1368" 
 />
    <glyph glyph-name="onesuperior" unicode="&#xb9;" horiz-adv-x="2048" 
 />
    <glyph glyph-name="onehalf" unicode="&#xbd;" horiz-adv-x="2000" 
d="M1609 -146h-731q0 102 118 214l220 178q118 97 118 162q0 98 -136 98q-140 0 -137 -98h-183q-1 177 365 177t366 -177q0 -77 -190 -233q-211 -173 -241 -242h431v-79zM1182 1317l-585 -1463h-316l585 1463h316zM439 585h-263v569h-176v81h88q38 0 71.5 24.5t33.5 57.5
h246v-732z" />
    <glyph glyph-name="onequarter" unicode="&#xbc;" horiz-adv-x="1950" 
d="M1536 146h-82v-292h-247v292h-329v167l352 418h224v-487h82v-98zM1207 244v321l-271 -321h271zM1182 1317l-585 -1463h-316l585 1463h316zM439 585h-263v569h-176v81h88q38 0 71.5 24.5t33.5 57.5h246v-732z" />
    <glyph glyph-name="threequarters" unicode="&#xbe;" horiz-adv-x="2000" 
d="M1682 146h-82v-292h-247v292h-329v167l353 418h223v-487h82v-98zM1353 244v321l-270 -321h270zM1328 1317l-585 -1463h-316l585 1463h316zM731 794q0 -133 -112 -178q-75 -31 -256 -31q-371 0 -370 171h185q-1 -95 138 -95q90 0 117 31q22 25 22 102q0 114 -92 114h-92
v77h92q92 0 92 114q0 77 -22 101q-27 30 -117 30q-139 0 -138 -93h-185q-1 169 370 169q181 0 256 -29q112 -45 112 -178q0 -109 -74 -153q74 -43 74 -152z" />
    <glyph glyph-name="Zcaron" unicode="&#x17d;" 
 />
    <glyph glyph-name="zcaron" unicode="&#x17e;" horiz-adv-x="1197" 
 />
    <glyph glyph-name="notequal" unicode="&#x2260;" horiz-adv-x="1197" 
d="M1026 171h-464l-49 -171h-171l49 171h-220v342h318l48 171h-366v342h464l49 171h171l-49 -171h220v-342h-318l-48 -171h366v-342z" />
    <glyph glyph-name="infinity" unicode="&#x221e;" horiz-adv-x="1539" 
d="M1368 684q0 -142 -100 -242t-242 -100q-130 0 -256 203q-127 -203 -257 -203q-142 0 -242 100t-100 242t100 242t242 100q130 0 257 -203q126 203 256 203q142 0 242 -100t100 -242zM1197 684q0 71 -50 121t-121 50q-74 0 -175 -171q101 -171 175 -171q71 0 121 50
t50 121zM688 684q-101 171 -175 171q-71 0 -121 -50t-50 -121t50 -121t121 -50q74 0 175 171z" />
    <glyph glyph-name="lessequal" unicode="&#x2264;" horiz-adv-x="1197" 
d="M855 342h-342l-342 513l342 513h342l-342 -513zM1025 -171h-854v342h854v-342z" />
    <glyph glyph-name="greaterequal" unicode="&#x2265;" horiz-adv-x="1197" 
d="M1026 855l-342 -513h-342l342 513l-342 513h342zM1026 -171h-854v342h854v-342z" />
    <glyph glyph-name="partialdiff" unicode="&#x2202;" 
d="M1197 342q0 -142 -100 -242t-242 -100h-342q-142 0 -242 100t-100 242v342q0 142 100 242t242 100h342q0 142 -100 242t-242 100h-171v171h342q212 0 362.5 -150.5t150.5 -362.5v-684zM855 342v342q0 71 -50 121t-121 50t-121 -50t-50 -121v-342q0 -71 50 -121t121 -50
t121 50t50 121z" />
    <glyph glyph-name="summation" unicode="&#x2211;" horiz-adv-x="1368" 
d="M1197 342l-2 -342h-1024v171l507 576l-507 618v171h1024v-171h-673l507 -618l-357 -405h525z" />
    <glyph glyph-name="product" unicode="&#x220f;" horiz-adv-x="1539" 
d="M1368 1368h-171v-1368h-342v1368h-342v-1368h-342v1368h-171v171h1368v-171z" />
    <glyph glyph-name="pi" unicode="&#x3c0;" horiz-adv-x="1539" 
d="M1368 1026h-171v-1026h-342v1026h-342v-1026h-342v1026h-171v171h1368v-171z" />
    <glyph glyph-name="integral" unicode="&#x222b;" horiz-adv-x="1197" 
d="M1026 1368h-171q-60 0 -115.5 -56t-55.5 -115v-1197q0 -141 -100.5 -241.5t-241.5 -100.5h-342v171h171q65 0 118 54.5t53 116.5v1197q0 141 100.5 241.5t241.5 100.5h342v-171z" />
    <glyph glyph-name="Omega" unicode="&#x3a9;" horiz-adv-x="1707" 
d="M1539 0h-513v388q171 99 171 296v342q0 142 -100 242t-242 100t-242 -100t-100 -242v-342q0 -197 171 -296v-388h-513v171h342v29q-151 54 -246.5 186.5t-95.5 297.5v342q0 212 150.5 362.5t362.5 150.5h342q212 0 362.5 -150.5t150.5 -362.5v-342q0 -165 -95.5 -297.5
t-246.5 -186.5v-29h342v-171z" />
    <glyph glyph-name="Omega" unicode="&#x2126;" horiz-adv-x="1707" 
d="M1539 0h-513v388q171 99 171 296v342q0 142 -100 242t-242 100t-242 -100t-100 -242v-342q0 -197 171 -296v-388h-513v171h342v29q-151 54 -246.5 186.5t-95.5 297.5v342q0 212 150.5 362.5t362.5 150.5h342q212 0 362.5 -150.5t150.5 -362.5v-342q0 -165 -95.5 -297.5
t-246.5 -186.5v-29h342v-171z" />
    <glyph glyph-name="radical" unicode="&#x221a;" horiz-adv-x="1539" 
d="M1368 1368l-769 -1368h-171l-257 512h-171v170h341l171 -340l686 1197z" />
    <glyph glyph-name="approxequal" unicode="&#x2248;" horiz-adv-x="1197" 
d="M1024 1024q-21 -180 -73 -256q-59 -86 -182 -86q-93 0 -187.5 85.5t-154.5 85.5q-65 0 -85 -171h-171q21 180 74 257q59 85 182 85q101 0 194.5 -85.5t147.5 -85.5q64 0 84 171h171zM1024 511q-21 -180 -73 -256q-59 -86 -182 -86q-93 0 -187.5 85.5t-154.5 85.5
q-65 0 -85 -171h-171q21 180 74 257q59 85 182 85q101 0 194.5 -85.5t147.5 -85.5q64 0 84 171h171z" />
    <glyph glyph-name="approxequal" unicode="&#x22f2;" horiz-adv-x="1197" 
d="M1024 1024q-21 -180 -73 -256q-59 -86 -182 -86q-93 0 -187.5 85.5t-154.5 85.5q-65 0 -85 -171h-171q21 180 74 257q59 85 182 85q101 0 194.5 -85.5t147.5 -85.5q64 0 84 171h171zM1024 511q-21 -180 -73 -256q-59 -86 -182 -86q-93 0 -187.5 85.5t-154.5 85.5
q-65 0 -85 -171h-171q21 180 74 257q59 85 182 85q101 0 194.5 -85.5t147.5 -85.5q64 0 84 171h171z" />
    <glyph glyph-name="Delta" unicode="&#x394;" horiz-adv-x="1536" 
d="M1368 0h-1368v171l599 1368h171l598 -1368v-171zM1112 171l-428 1026l-427 -1026h855z" />
    <glyph glyph-name="Delta" unicode="&#x2206;" horiz-adv-x="1536" 
d="M1368 0h-1368v171l599 1368h171l598 -1368v-171zM1112 171l-428 1026l-427 -1026h855z" />
    <glyph glyph-name="lozenge" unicode="&#x25ca;" horiz-adv-x="1536" 
d="M1366 597l-598 -597l-597 597l597 598zM1124 597l-356 356l-356 -356l356 -356z" />
    <glyph glyph-name="fraction" unicode="&#x2044;" horiz-adv-x="513" 
d="M853 1536l-853 -1536h-171l854 1536h170z" />
    <glyph glyph-name="fi" unicode="&#xf001;" horiz-adv-x="1368" 
d="M1194 0h-341v1024h-341v-1024h-341v1024h-171v171h171v15q0 132 106 230q103 96 235 96h340v-171h-177q-58 0 -110.5 -48.5t-52.5 -106.5v-15h682v-1195z" />
    <glyph glyph-name="fl" unicode="&#xf002;" horiz-adv-x="1368" 
d="M1194 0h-341v1365h-178q-58 0 -110.5 -48.5t-52.5 -106.5v-15h171v-171h-171v-1024h-341v1024h-171v171h171v15q0 132 106 230q103 96 235 96h682v-1536z" />
    <glyph glyph-name="apple" unicode="&#xf000;" horiz-adv-x="1539" 
d="M1096 1617q0 -105 -68 -212q-71 -111 -168 -143q-32 -11 -106 -17q4 339 336 415q6 -19 6 -43zM1482 414q-46 -149 -145 -286q-124 -172 -245 -172q-51 0 -148.5 33t-149.5 33q-50 0 -141.5 -34.5t-140.5 -34.5q-156 0 -307.5 265t-151.5 517q0 208 97 358
q112 173 310 173q59 0 167 -31t156 -31q53 0 159.5 35t164.5 35q188 0 326 -169q-184 -156 -184 -333q0 -114 62 -216q67 -111 171 -142z" />
    <glyph glyph-name="dotlessi" unicode="&#x131;" horiz-adv-x="683" 
d="M512 0h-341v1195h341v-1195z" />
    <glyph glyph-name="breve" unicode="&#x2d8;" horiz-adv-x="1024" 
d="M854 1878q-40 -342 -342 -342q-301 0 -341 342h171q19 -171 170 -171t171 171h171z" />
    <glyph glyph-name="dotaccent" unicode="&#x2d9;" horiz-adv-x="1024" 
d="M684 1539h-342v342h342v-342z" />
    <glyph glyph-name="ring" unicode="&#x2da;" horiz-adv-x="1024" 
d="M855 1794q0 -106 -100 -180.5t-242 -74.5t-242 74.5t-100 180.5q0 105 100 179.5t242 74.5t242 -74.5t100 -179.5zM684 1796q0 35 -50 60t-121 25t-121 -25t-50 -60q0 -36 50 -61t121 -25t121 25t50 61z" />
    <glyph glyph-name="hungarumlaut" unicode="&#x2dd;" horiz-adv-x="1026" 
d="M1197 1710l-342 -342h-171l171 342h342zM684 1710l-343 -345h-170l170 342z" />
    <glyph glyph-name="ogonek" unicode="&#x2db;" horiz-adv-x="1024" 
d="M689 -493q-70 -19 -108 -19q-99 0 -172.5 78.5t-73.5 177.5q0 105 75.5 180.5t180.5 75.5h86v-171h-86q-85 0 -85 -85t82 -85q13 0 36 6z" />
    <glyph glyph-name="caron" unicode="&#x2c7;" horiz-adv-x="1024" 
d="M853 1706l-256 -341h-170l-256 342h170l171 -171l171 170h170z" />
  </font>
</defs>
</svg>
